<?xml version="1.0" encoding="UTF-8" standalone="no"?>
<!DOCTYPE svg PUBLIC "-//W3C//DTD SVG 1.1//EN" "http://www.w3.org/Graphics/SVG/1.1/DTD/svg11.dtd">
<svg width="100%" height="100%" viewBox="0 0 793 188" version="1.1" xmlns="http://www.w3.org/2000/svg" xmlns:xlink="http://www.w3.org/1999/xlink" xml:space="preserve" xmlns:serif="http://www.serif.com/" style="fill-rule:evenodd;clip-rule:evenodd;stroke-linejoin:round;stroke-miterlimit:1.41421;">
    <g transform="matrix(5.55556,0,0,5.55556,160.232,124.922)">
        <path d="M0,0.653L-4.113,1.843L-4.529,3.03L3.601,3.03L1.083,-2.377L0,0.653Z" style="fill:white;fill-rule:nonzero;"/>
    </g>
    <g transform="matrix(5.55556,0,0,5.55556,185.487,81.75)">
        <path d="M0,-3.914L-3.428,-2.159L-13.756,-14.715L-18.657,-1.957L-18.244,-1.577L-13.153,-11.664L-7.468,-0.992L-7.684,2.579L-0.542,-2.615L-1.299,3.445L4.759,10.801L6.077,10.801L0,-3.914Z" style="fill:white;fill-rule:nonzero;"/>
    </g>
    <g transform="matrix(5.55556,0,0,5.55556,97.1,102.033)">
        <path d="M0,-0.963L-2.597,-3.778L-3.313,-4.393L-9.606,-8.113L-17.478,5.958L-17.166,6.325L-8.939,-6.404L-5.086,-0.422L-7.467,3.907L-6.321,7.15L3.691,7.15L-0.541,3.582L0,-0.963Z" style="fill:white;fill-rule:nonzero;"/>
    </g>
    <g transform="matrix(5.55556,0,0,5.55556,778.388,135.909)">
        <path d="M0,-0.027L0,-0.036C0,-0.517 0.366,-0.914 0.9,-0.914C1.249,-0.914 1.461,-0.773 1.616,-0.566L1.258,-0.283C1.161,-0.402 1.051,-0.482 0.887,-0.482C0.653,-0.482 0.49,-0.283 0.49,-0.04L0.49,-0.031C0.49,0.216 0.653,0.41 0.887,0.41C1.064,0.41 1.166,0.327 1.267,0.207L1.629,0.463C1.466,0.684 1.254,0.843 0.887,0.843C0.371,0.843 0,0.463 0,-0.027M2.278,-0.014L2.278,-0.023C2.278,-0.804 1.673,-1.444 0.87,-1.444C0.062,-1.444 -0.548,-0.795 -0.548,-0.014L-0.548,-0.005C-0.548,0.777 0.057,1.417 0.861,1.417C1.669,1.417 2.278,0.768 2.278,-0.014M-0.733,-0.005L-0.733,-0.014C-0.733,-0.883 -0.026,-1.621 0.87,-1.621C1.766,-1.621 2.463,-0.892 2.463,-0.023L2.463,-0.014C2.463,0.856 1.757,1.594 0.861,1.594C-0.036,1.594 -0.733,0.865 -0.733,-0.005" style="fill:white;fill-rule:nonzero;"/>
    </g>
    <g transform="matrix(5.55556,0,0,5.55556,343.406,111.012)">
        <path d="M0,-11.585C-0.229,-11.539 -0.401,-11.516 -0.516,-11.516C-0.814,-11.516 -1.031,-11.573 -1.169,-11.688C-1.306,-11.802 -1.41,-11.929 -1.478,-12.066C-2.075,-13.373 -2.785,-14.323 -3.609,-14.919C-4.435,-15.515 -5.558,-15.814 -6.979,-15.814C-7.529,-15.814 -8.05,-15.739 -8.543,-15.59C-9.036,-15.44 -9.466,-15.223 -9.832,-14.937C-10.199,-14.65 -10.491,-14.301 -10.708,-13.888C-10.927,-13.476 -11.035,-13.017 -11.035,-12.513C-11.035,-11.436 -10.583,-10.554 -9.677,-9.866C-8.772,-9.178 -7.437,-8.479 -5.672,-7.769C-3.472,-6.898 -1.851,-5.93 -0.808,-4.864C0.235,-3.798 0.756,-2.486 0.756,-0.928C0.756,0.012 0.613,0.889 0.327,1.702C0.04,2.516 -0.407,3.226 -1.014,3.833C-1.622,4.441 -2.406,4.916 -3.369,5.26C-4.332,5.603 -5.489,5.775 -6.841,5.775C-8.262,5.775 -9.551,5.626 -10.708,5.329C-11.866,5.031 -12.846,4.641 -13.648,4.16C-13.717,3.197 -13.82,2.269 -13.957,1.375C-14.095,0.481 -14.255,-0.412 -14.438,-1.306C-14.278,-1.375 -14.083,-1.409 -13.854,-1.409C-13.579,-1.409 -13.367,-1.346 -13.218,-1.22C-13.069,-1.094 -12.938,-0.894 -12.823,-0.619C-12.25,1.031 -11.511,2.247 -10.605,3.025C-9.7,3.805 -8.434,4.194 -6.807,4.194C-6.074,4.194 -5.432,4.091 -4.881,3.885C-4.332,3.679 -3.874,3.392 -3.506,3.025C-3.14,2.659 -2.865,2.247 -2.682,1.788C-2.498,1.33 -2.406,0.837 -2.406,0.31C-2.406,-0.882 -2.813,-1.822 -3.627,-2.509C-4.44,-3.197 -5.604,-3.816 -7.116,-4.366C-8.102,-4.732 -8.996,-5.116 -9.797,-5.518C-10.6,-5.918 -11.288,-6.382 -11.86,-6.91C-12.433,-7.437 -12.875,-8.049 -13.184,-8.749C-13.493,-9.448 -13.648,-10.279 -13.648,-11.241C-13.648,-12.089 -13.493,-12.885 -13.184,-13.63C-12.875,-14.375 -12.427,-15.023 -11.843,-15.573C-11.259,-16.123 -10.554,-16.558 -9.729,-16.879C-8.904,-17.2 -7.976,-17.36 -6.944,-17.36C-5.867,-17.36 -4.836,-17.257 -3.85,-17.051C-2.865,-16.845 -1.753,-16.501 -0.516,-16.02C-0.47,-15.332 -0.407,-14.593 -0.327,-13.802C-0.247,-13.012 -0.138,-12.272 0,-11.585" style="fill:white;fill-rule:nonzero;"/>
    </g>
    <g transform="matrix(5.55556,0,0,5.55556,395.581,53.9061)">
        <path d="M0,13.614C0.114,13.499 0.211,13.43 0.292,13.407C0.372,13.385 0.435,13.373 0.481,13.373C0.687,13.373 0.871,13.523 1.031,13.82C0.435,14.485 -0.207,15.023 -0.894,15.436C-1.582,15.848 -2.315,16.054 -3.094,16.054C-3.553,16.054 -3.988,16.003 -4.4,15.9C-4.813,15.797 -5.168,15.596 -5.466,15.298C-5.764,15.001 -5.999,14.593 -6.171,14.078C-6.343,13.562 -6.429,12.892 -6.429,12.067L-6.429,2.579L-8.491,2.579L-8.491,2.2C-8.491,2.04 -8.463,1.891 -8.405,1.754C-8.348,1.616 -8.228,1.548 -8.044,1.548C-7.426,1.548 -6.922,1.387 -6.532,1.066C-6.142,0.745 -5.822,0.333 -5.569,-0.172C-5.294,-0.721 -5.053,-1.237 -4.847,-1.719C-4.641,-2.199 -4.412,-2.44 -4.16,-2.44L-3.541,-2.44L-3.541,1.135L0.481,1.135C0.481,1.616 0.43,1.977 0.327,2.218C0.224,2.458 0.034,2.579 -0.241,2.579L-3.541,2.579L-3.541,11.104C-3.541,11.838 -3.507,12.428 -3.438,12.875C-3.369,13.322 -3.266,13.665 -3.128,13.906C-2.991,14.147 -2.831,14.301 -2.647,14.37C-2.464,14.439 -2.258,14.473 -2.028,14.473C-1.639,14.473 -1.278,14.387 -0.945,14.216C-0.613,14.044 -0.298,13.843 0,13.614" style="fill:white;fill-rule:nonzero;"/>
    </g>
    <g transform="matrix(5.55556,0,0,5.55556,436.163,136.227)">
        <path d="M0,-12.858C-1.141,-12.858 -2.031,-12.411 -2.669,-11.517C-3.308,-10.623 -3.626,-9.455 -3.626,-8.01L2.839,-8.32C3.181,-8.32 3.352,-8.469 3.352,-8.767C3.352,-9.202 3.283,-9.661 3.147,-10.142C3.01,-10.623 2.805,-11.065 2.531,-11.465C2.257,-11.866 1.909,-12.199 1.488,-12.462C1.065,-12.726 0.57,-12.858 0,-12.858M5.556,-2.373C5.716,-2.533 5.887,-2.613 6.07,-2.613C6.298,-2.613 6.516,-2.419 6.721,-2.029C6.423,-1.616 6.079,-1.215 5.69,-0.826C5.3,-0.436 4.836,-0.087 4.297,0.223C3.759,0.532 3.146,0.779 2.458,0.962C1.771,1.145 0.98,1.237 0.086,1.237C-0.831,1.237 -1.702,1.087 -2.526,0.79C-3.352,0.493 -4.079,0.034 -4.709,-0.585C-5.34,-1.204 -5.844,-1.971 -6.222,-2.888C-6.6,-3.805 -6.789,-4.882 -6.789,-6.12C-6.789,-7.289 -6.566,-8.366 -6.119,-9.351C-5.672,-10.337 -5.093,-11.179 -4.383,-11.878C-3.673,-12.577 -2.887,-13.121 -2.028,-13.511C-1.168,-13.9 -0.338,-14.095 0.464,-14.095C2.596,-14.095 4.148,-13.477 5.123,-12.239C6.096,-11.002 6.583,-9.386 6.583,-7.392C6.583,-7.254 6.515,-7.186 6.377,-7.186L-3.558,-6.739C-3.558,-5.845 -3.433,-5.02 -3.181,-4.263C-2.93,-3.507 -2.576,-2.854 -2.119,-2.304C-1.662,-1.754 -1.108,-1.324 -0.457,-1.015C0.194,-0.706 0.931,-0.551 1.753,-0.551C2.483,-0.551 3.186,-0.723 3.86,-1.066C4.534,-1.41 5.1,-1.845 5.556,-2.373" style="fill:white;fill-rule:nonzero;"/>
    </g>
    <g transform="matrix(5.55556,0,0,5.55556,515.419,136.227)">
        <path d="M0,-12.858C-1.141,-12.858 -2.03,-12.411 -2.668,-11.517C-3.307,-10.623 -3.626,-9.455 -3.626,-8.01L2.839,-8.32C3.181,-8.32 3.353,-8.469 3.353,-8.767C3.353,-9.202 3.284,-9.661 3.147,-10.142C3.01,-10.623 2.805,-11.065 2.531,-11.465C2.257,-11.866 1.91,-12.199 1.488,-12.462C1.066,-12.726 0.57,-12.858 0,-12.858M5.556,-2.373C5.716,-2.533 5.888,-2.613 6.07,-2.613C6.298,-2.613 6.516,-2.419 6.721,-2.029C6.423,-1.616 6.08,-1.215 5.69,-0.826C5.3,-0.436 4.836,-0.087 4.298,0.223C3.759,0.532 3.146,0.779 2.458,0.962C1.771,1.145 0.98,1.237 0.086,1.237C-0.831,1.237 -1.701,1.087 -2.526,0.79C-3.351,0.493 -4.079,0.034 -4.709,-0.585C-5.34,-1.204 -5.844,-1.971 -6.222,-2.888C-6.6,-3.805 -6.789,-4.882 -6.789,-6.12C-6.789,-7.289 -6.565,-8.366 -6.119,-9.351C-5.672,-10.337 -5.093,-11.179 -4.382,-11.878C-3.672,-12.577 -2.887,-13.121 -2.028,-13.511C-1.168,-13.9 -0.338,-14.095 0.465,-14.095C2.596,-14.095 4.148,-13.477 5.123,-12.239C6.097,-11.002 6.584,-9.386 6.584,-7.392C6.584,-7.254 6.515,-7.186 6.377,-7.186L-3.558,-6.739C-3.558,-5.845 -3.432,-5.02 -3.181,-4.263C-2.93,-3.507 -2.576,-2.854 -2.119,-2.304C-1.662,-1.754 -1.107,-1.324 -0.457,-1.015C0.194,-0.706 0.931,-0.551 1.753,-0.551C2.484,-0.551 3.187,-0.723 3.86,-1.066C4.534,-1.41 5.1,-1.845 5.556,-2.373" style="fill:white;fill-rule:nonzero;"/>
    </g>
    <g transform="matrix(5.55556,0,0,5.55556,583.699,120.182)">
        <path d="M0,0.928C0.572,1.524 1.203,1.999 1.891,2.354C2.578,2.71 3.357,2.887 4.228,2.887C4.893,2.887 5.477,2.739 5.981,2.44C6.485,2.143 6.904,1.736 7.236,1.22C7.568,0.704 7.821,0.086 7.993,-0.636C8.165,-1.358 8.25,-2.143 8.25,-2.991C8.25,-3.862 8.153,-4.693 7.958,-5.484C7.763,-6.274 7.477,-6.967 7.099,-7.563C6.721,-8.159 6.262,-8.629 5.724,-8.973C5.185,-9.317 4.583,-9.489 3.919,-9.489C3.46,-9.489 3.002,-9.356 2.544,-9.093C2.085,-8.829 1.667,-8.491 1.289,-8.079C0.911,-7.666 0.602,-7.202 0.361,-6.687C0.12,-6.171 0,-5.65 0,-5.122L0,0.928ZM-2.888,-7.77C-2.888,-8.411 -2.997,-8.87 -3.214,-9.145C-3.433,-9.42 -3.931,-9.592 -4.71,-9.66C-5.008,-9.706 -5.157,-9.855 -5.157,-10.107C-5.157,-10.245 -5.134,-10.405 -5.088,-10.589C-4.79,-10.589 -4.383,-10.606 -3.868,-10.64C-3.352,-10.675 -2.922,-10.726 -2.579,-10.795C-2.075,-10.864 -1.622,-10.949 -1.221,-11.052C-0.82,-11.155 -0.527,-11.207 -0.344,-11.207C-0.046,-11.207 0.103,-11.035 0.103,-10.692C0.103,-10.417 0.086,-10.09 0.051,-9.712C0.017,-9.334 0,-8.778 0,-8.045C0.687,-8.939 1.461,-9.689 2.32,-10.296C3.18,-10.903 4.24,-11.207 5.5,-11.207C6.279,-11.207 7.03,-11.047 7.752,-10.726C8.474,-10.405 9.11,-9.929 9.66,-9.3C10.21,-8.669 10.651,-7.895 10.983,-6.979C11.315,-6.062 11.482,-5.019 11.482,-3.851C11.482,-2.567 11.241,-1.432 10.76,-0.447C10.279,0.538 9.683,1.369 8.972,2.045C8.262,2.721 7.488,3.237 6.652,3.592C5.815,3.947 5.042,4.125 4.332,4.125C3.598,4.125 2.882,4.056 2.183,3.919C1.483,3.781 0.756,3.541 0,3.197L0,9.419C0,10.015 0.263,10.421 0.791,10.639C1.317,10.857 2.177,11.023 3.369,11.138C3.621,11.183 3.747,11.332 3.747,11.585C3.747,11.722 3.724,11.906 3.678,12.135C3.151,12.089 2.429,12.049 1.513,12.014C0.596,11.98 -0.264,11.963 -1.066,11.963C-1.662,11.963 -2.292,11.98 -2.957,12.014C-3.622,12.049 -4.251,12.089 -4.847,12.135C-4.894,11.906 -4.916,11.722 -4.916,11.585C-4.916,11.355 -4.813,11.218 -4.606,11.172C-4.103,11.057 -3.69,10.92 -3.369,10.76C-3.048,10.599 -2.888,10.335 -2.888,9.969L-2.888,-7.77Z" style="fill:white;fill-rule:nonzero;"/>
    </g>
    <g transform="matrix(5.55556,0,0,5.55556,689.008,7.11556)">
        <path d="M0,24.236C-0.596,24.19 -1.205,24.15 -1.825,24.116C-2.446,24.082 -3.069,24.064 -3.696,24.064C-4.322,24.064 -4.962,24.082 -5.618,24.116C-6.273,24.15 -6.887,24.19 -7.46,24.236C-7.506,24.007 -7.529,23.823 -7.529,23.686C-7.529,23.457 -7.426,23.32 -7.219,23.274C-6.715,23.182 -6.246,23.05 -5.81,22.879C-5.375,22.706 -5.157,22.437 -5.157,22.07L-5.157,3.575C-5.157,2.842 -5.3,2.344 -5.586,2.08C-5.873,1.817 -6.417,1.651 -7.219,1.582C-7.518,1.536 -7.666,1.375 -7.666,1.1C-7.666,0.963 -7.644,0.803 -7.598,0.619C-7.3,0.619 -6.887,0.602 -6.36,0.568C-5.833,0.533 -5.351,0.493 -4.914,0.447C-4.38,0.379 -3.905,0.287 -3.488,0.172C-3.072,0.058 -2.77,0 -2.584,0C-2.376,0 -2.237,0.047 -2.167,0.138C-2.098,0.23 -2.063,0.356 -2.063,0.516C-2.063,0.906 -2.097,1.358 -2.166,1.874C-2.235,2.389 -2.269,2.991 -2.269,3.679L-2.269,22.07C-2.269,22.437 -2.058,22.706 -1.633,22.879C-1.209,23.05 -0.734,23.182 -0.207,23.274C-0.023,23.32 0.069,23.457 0.069,23.686C0.069,23.823 0.045,24.007 0,24.236" style="fill:white;fill-rule:nonzero;"/>
    </g>
    <g transform="matrix(5.55556,0,0,5.55556,729.587,136.227)">
        <path d="M0,-12.858C-1.141,-12.858 -2.03,-12.411 -2.668,-11.517C-3.307,-10.623 -3.626,-9.455 -3.626,-8.01L2.839,-8.32C3.181,-8.32 3.353,-8.469 3.353,-8.767C3.353,-9.202 3.284,-9.661 3.147,-10.142C3.01,-10.623 2.805,-11.065 2.531,-11.465C2.257,-11.866 1.91,-12.199 1.488,-12.462C1.066,-12.726 0.57,-12.858 0,-12.858M5.556,-2.373C5.716,-2.533 5.888,-2.613 6.07,-2.613C6.299,-2.613 6.516,-2.419 6.722,-2.029C6.423,-1.616 6.08,-1.215 5.69,-0.826C5.3,-0.436 4.836,-0.087 4.298,0.223C3.759,0.532 3.146,0.779 2.458,0.962C1.771,1.145 0.98,1.237 0.086,1.237C-0.83,1.237 -1.701,1.087 -2.526,0.79C-3.351,0.493 -4.079,0.034 -4.709,-0.585C-5.339,-1.204 -5.843,-1.971 -6.222,-2.888C-6.6,-3.805 -6.789,-4.882 -6.789,-6.12C-6.789,-7.289 -6.565,-8.366 -6.119,-9.351C-5.672,-10.337 -5.093,-11.179 -4.382,-11.878C-3.672,-12.577 -2.887,-13.121 -2.028,-13.511C-1.168,-13.9 -0.338,-14.095 0.465,-14.095C2.596,-14.095 4.148,-13.477 5.123,-12.239C6.097,-11.002 6.584,-9.386 6.584,-7.392C6.584,-7.254 6.515,-7.186 6.377,-7.186L-3.558,-6.739C-3.558,-5.845 -3.432,-5.02 -3.181,-4.263C-2.929,-3.507 -2.576,-2.854 -2.118,-2.304C-1.662,-1.754 -1.107,-1.324 -0.457,-1.015C0.194,-0.706 0.931,-0.551 1.753,-0.551C2.484,-0.551 3.187,-0.723 3.86,-1.066C4.534,-1.41 5.1,-1.845 5.556,-2.373" style="fill:white;fill-rule:nonzero;"/>
    </g>
</svg>
